PathFileType	4	(X/Y/Z)	s11c0103.trc
DataRate	CameraRate	NumFrames	NumMarkers	Units	OrigDataRate	OrigDataStartFrame	OrigNumFrames
200	200	4	48	mm	200	0	2000
Frame#	Time	racr			lacr			c7			jug			rlel			rdr			llel			ldr			s2			lic			ric			lasi			rasi			rpsi			lpsi			rgt			lgt			rth1			rth2			rth3			rth4			rlfc			rmfc			rsh1			rsh2			rsh3			rsh4			rlmal			rcal			rtoe			rmt5			lth1			lth2			lth4			lth3			llfc			lmfc			llmal			lcal			lmt5			lsh1			lsh2			lsh3			lsh4			ltoe			SBIKE			LBIKE			RBIKE			
		X1	Y1	Z1	X2	Y2	Z2	X3	Y3	Z3	X4	Y4	Z4	X5	Y5	Z5	X6	Y6	Z6	X7	Y7	Z7	X8	Y8	Z8	X9	Y9	Z9	X10	Y10	Z10	X11	Y11	Z11	X12	Y12	Z12	X13	Y13	Z13	X14	Y14	Z14	X15	Y15	Z15	X16	Y16	Z16	X17	Y17	Z17	X18	Y18	Z18	X19	Y19	Z19	X20	Y20	Z20	X21	Y21	Z21	X22	Y22	Z22	X23	Y23	Z23	X24	Y24	Z24	X25	Y25	Z25	X26	Y26	Z26	X27	Y27	Z27	X28	Y28	Z28	X29	Y29	Z29	X30	Y30	Z30	X31	Y31	Z31	X32	Y32	Z32	X33	Y33	Z33	X34	Y34	Z34	X35	Y35	Z35	X36	Y36	Z36	X37	Y37	Z37	X38	Y38	Z38	X39	Y39	Z39	X40	Y40	Z40	X41	Y41	Z41	X42	Y42	Z42	X43	Y43	Z43	X44	Y44	Z44	X45	Y45	Z45	X46	Y46	Z46	X47	Y47	Z47	X48	Y48	Z48	
0	0.0000	456.096564	1393.575312	-89.096146	462.573450	1413.042174	-403.273129	397.363224	1494.632006	-244.722497	417.536807	1325.390106	-254.339224	580.972890	1151.314245	-45.839349	775.425875	922.671041	-101.733282	560.561404	1138.065771	-484.270156	782.732815	907.468507	-434.849774	-132.857483	1197.039825	-268.680043	87.842133	1203.732407	-464.015479	76.124343	1223.646351	-61.169963	122.392755	1130.936111	-435.239938	93.973088	1168.218021	-109.276891	-95.678696	1273.463519	-220.915057	-91.254173	1262.476682	-310.049845	36.826210	1110.175030	-31.428328	-8.866685	1061.554064	-470.662801	171.679073	1067.200453	-31.350488	260.928304	1070.480918	-37.636258	338.232900	1028.669902	-44.449924	267.902832	1103.770847	-53.601488	447.627992	991.230476	-56.590090	457.801888	973.654848	-189.171151	381.751156	846.151848	-55.103675	357.356722	764.032487	-78.278793	295.950113	702.834590	-83.938620	380.584746	756.954767	-110.170641	216.090761	598.192787	-103.715840	148.443836	596.179193	-152.678992	415.740779	493.051365	-149.660629	342.052069	484.995022	-79.440907	69.617206	932.084769	-485.910568	127.644890	869.743945	-477.036218	160.703325	885.830957	-471.080576	147.100274	782.587372	-466.212856	209.724246	661.626662	-439.763316	224.619082	654.065642	-312.011092	46.774630	258.782899	-418.058644	-7.473833	210.745780	-380.577637	193.471918	164.357415	-453.193403	155.021403	547.410318	-459.990865	149.923994	462.325342	-445.508614	101.976346	388.490991	-440.283112	179.966650	455.710565	-424.109072	289.753257	190.339595	-386.697433	-215.814413	950.754002	-256.377003	-18.063051	80.962168	-460.573179	-17.942765	80.889964	-61.982163	
1	0.0050	455.963510	1393.514265	-89.030759	462.547860	1412.978832	-403.132648	397.202867	1494.703517	-244.625954	417.456731	1325.447288	-254.187329	580.912858	1151.265740	-45.783005	775.397135	922.694713	-101.701778	560.539349	1138.069429	-484.202725	782.725938	907.442526	-434.827037	-132.895134	1197.003550	-268.720039	87.781441	1203.718848	-463.983734	75.962752	1223.567324	-61.217536	122.332472	1130.915476	-435.241448	93.857424	1168.151491	-109.277428	-95.780837	1273.429923	-220.956822	-91.299630	1262.418408	-310.096982	36.755559	1110.078267	-31.485836	-8.831894	1061.548261	-470.681211	171.634070	1067.060859	-31.403828	260.867477	1070.299004	-37.712972	338.179004	1028.454349	-44.546408	267.916700	1103.555932	-53.655714	447.526992	990.925094	-56.750935	457.734289	973.324864	-189.264750	382.386620	845.466571	-55.165073	358.509870	763.276404	-78.238777	297.445349	701.609332	-83.966667	381.795279	756.270555	-110.138371	217.980268	596.637009	-103.645248	150.542480	593.984617	-152.609342	418.580897	492.806884	-149.661937	345.005204	484.184787	-79.498784	70.054290	932.280739	-485.965690	128.341552	870.183692	-477.159491	161.288239	886.354137	-471.204228	148.111405	783.037286	-466.446083	210.911886	662.209473	-440.229690	225.794345	654.588890	-312.475578	44.685082	260.820447	-418.081198	-9.930256	213.260171	-380.529834	190.675651	165.346697	-453.122352	155.493220	548.397501	-460.367635	149.715029	463.211156	-445.608600	101.127652	389.909441	-440.533470	179.670103	456.637145	-424.210229	287.067073	190.709886	-386.712879	-215.817947	950.747281	-256.378970	-18.080190	81.029557	-460.545918	-17.916721	80.899019	-61.988724	
2	0.0100	455.839952	1393.467599	-88.972103	462.505374	1412.936222	-402.997493	397.049091	1494.834048	-244.615130	417.357776	1325.519227	-254.039205	580.834289	1151.245936	-45.756760	775.368195	922.715457	-101.686818	560.533736	1138.070286	-484.133587	782.690442	907.397707	-434.815258	-132.957376	1196.961312	-268.720474	87.727971	1203.734650	-463.968278	75.915534	1223.501567	-61.206596	122.268454	1130.918932	-435.264880	93.783956	1168.079943	-109.315937	-95.832358	1273.419678	-220.988712	-91.361689	1262.388470	-310.105715	36.650478	1109.976627	-31.541863	-8.803437	1061.539331	-470.686427	171.574127	1066.877796	-31.460412	260.831181	1070.042400	-37.784935	338.085857	1028.154724	-44.633080	267.876409	1103.299870	-53.678381	447.392898	990.580292	-56.909051	457.637488	972.967147	-189.381759	383.002319	844.721845	-55.260807	359.625591	762.322731	-78.255522	298.803829	700.392121	-84.048602	382.819071	755.463749	-110.184811	220.036998	594.729641	-103.427881	152.640241	591.684762	-152.589143	421.360335	492.420871	-149.600866	347.857300	483.304312	-79.485244	70.490116	932.469293	-485.995441	128.988835	870.610046	-477.238449	161.892252	886.864855	-471.279577	149.140293	783.540413	-466.647710	212.146935	662.857834	-440.696897	227.075934	655.223713	-312.956526	42.718129	262.982310	-418.176099	-12.323202	215.781048	-380.559132	187.890886	166.449465	-453.118037	155.976861	549.346770	-460.713395	149.516771	464.324834	-445.805477	100.317674	391.376696	-440.627518	179.318208	457.507644	-424.445904	284.513857	191.061734	-386.632602	-215.825167	950.738257	-256.359395	-18.095415	80.981206	-460.579016	-17.914155	80.901458	-61.993838	
3	0.0150	455.757801	1393.421278	-88.885070	462.458063	1412.903191	-402.915166	396.920036	1494.861880	-244.478226	417.330896	1325.589383	-253.911852	580.770263	1151.191129	-45.721515	775.370537	922.736115	-101.627688	560.529415	1138.072741	-484.061301	782.664182	907.324386	-434.751716	-132.993285	1196.939372	-268.745627	87.712142	1203.778103	-464.072235	75.804909	1223.449946	-61.236917	122.212519	1130.906445	-435.274968	93.696857	1168.026083	-109.323359	-95.367363	1273.359084	-221.207401	-91.889141	1262.393921	-309.740702	36.566973	1109.829159	-31.578156	-8.755201	1061.456645	-470.699106	171.543243	1066.634461	-31.508426	260.752355	1069.765537	-37.855676	338.041733	1027.713988	-44.650301	267.873083	1103.031546	-53.716223	447.301536	990.057345	-57.028379	457.501749	972.570965	-189.519797	383.575180	843.911914	-55.293600	360.722800	761.423750	-78.185225	300.273432	699.030982	-84.149709	384.165364	754.872539	-110.020259	222.015032	593.168228	-103.379755	154.841823	589.364648	-152.516351	424.105095	492.006694	-149.710155	350.652516	482.390748	-79.490840	70.919942	932.698780	-486.013910	129.676330	871.050351	-477.410610	162.461365	887.787608	-471.478614	150.160105	784.011507	-466.897715	213.356638	663.508979	-441.170206	228.448409	655.846971	-313.445432	40.798891	265.171470	-418.249871	-14.673120	218.455791	-380.503384	185.199704	167.556571	-453.022489	156.445801	550.422111	-461.049553	149.322114	465.456490	-446.001743	99.524159	392.904587	-440.748185	179.093210	458.494138	-424.750502	281.983154	191.505980	-386.649470	-216.094663	950.925961	-257.192932	-18.099518	81.046516	-460.546273	-17.912442	80.897652	-61.967654	
